<svg xmlns="http://www.w3.org/2000/svg" xmlns:xlink="http://www.w3.org/1999/xlink" width="500" height="250" viewBox="0 0 500 250"><defs><style>.a{clip-path:url(#b);}.b{fill:#ed3030;stroke:rgba(0,0,0,0);stroke-miterlimit:10;}</style><clipPath id="b"><rect width="500" height="250"/></clipPath></defs><g id="a" class="a"><path class="b" d="M-320.4,47.6c-12.632-5.308-27.026-15.631-37.6-26.248L-332.149-3.72c6.463,6.489,16.45,13.862,24.675,17.105a73.876,73.876,0,0,0,27.32,5.014q34.811,0,52.876-21.235c12.044-14.157,17.919-30.967,17.626-50.138s-6.169-35.686-17.919-49.252-29.376-20.351-52.877-20.351a79.2,79.2,0,0,0-27.907,5.309c-9.4,3.539-17.332,10.912-24.089,17.7L-358-126.116c10.282-10.322,22.032-20.055,34.958-25.069a118.526,118.526,0,0,1,43.182-7.668q27.76,0,49.351,8.848t34.37,23.889a106.8,106.8,0,0,1,19.387,33.622,110.4,110.4,0,0,1,5.416,22.87H-64.184a122,122,0,0,1,5.229-20.658,106.225,106.225,0,0,1,19.682-34.506C-30.46-135.111-19-143.369-4.609-149.562S25.941-159,43.86-159A103.564,103.564,0,0,1,84.4-151.037c12.631,5.308,27.025,15.631,37.6,26.248L96.149-99.719c-6.463-6.489-16.45-13.861-24.675-17.105a73.872,73.872,0,0,0-27.32-5.014q-34.809,0-52.876,21.235C-20.766-86.448-26.642-69.637-26.348-50.466S-20.179-14.781-8.429-1.213s29.376,20.35,52.877,20.35a79.185,79.185,0,0,0,27.907-5.309c9.4-3.539,17.332-10.912,24.089-17.7L122,22.676C111.718,33,99.968,42.731,87.042,47.745A118.522,118.522,0,0,1,43.86,55.413q-27.76,0-49.351-8.848T-39.86,22.676A106.78,106.78,0,0,1-59.249-10.946a111.472,111.472,0,0,1-5.743-25.646H-171.4a121.609,121.609,0,0,1-5.643,23.434,106.214,106.214,0,0,1-19.682,34.506C-205.54,31.671-217,39.929-231.39,46.122s-30.551,9.438-48.471,9.438A103.542,103.542,0,0,1-320.4,47.6Z" transform="translate(368 176.999)"/></g></svg>